<?xml version="1.0" encoding="UTF-8" standalone="no"?>
<svg
   xmlns:dc="http://purl.org/dc/elements/1.1/"
   xmlns:cc="http://creativecommons.org/ns#"
   xmlns:rdf="http://www.w3.org/1999/02/22-rdf-syntax-ns#"
   xmlns:svg="http://www.w3.org/2000/svg"
   xmlns="http://www.w3.org/2000/svg"
   viewBox="0 0 275.23599 286.66666"
   height="286.66666"
   width="275.23599"
   xml:space="preserve"
   id="svg2"
   version="1.1"><metadata
     id="metadata8"><rdf:RDF><cc:Work
         rdf:about=""><dc:format>image/svg+xml</dc:format><dc:type
           rdf:resource="http://purl.org/dc/dcmitype/StillImage" /></cc:Work></rdf:RDF></metadata><defs
     id="defs6"><clipPath
       id="clipPath76"
       clipPathUnits="userSpaceOnUse"><path
         id="path74"
         d="M 0,215 H 206.427 V 0 H 0 Z" /></clipPath></defs><g
     transform="matrix(1.3333333,0,0,-1.3333333,0,286.66667)"
     id="g10"><g
       transform="translate(53.1416,105.8736)"
       id="g12"><path
         id="path14"
         style="fill:#5e2590;fill-opacity:1;fill-rule:nonzero;stroke:none"
         d="M 0,0 -13.509,-4.879 -33.297,14.364 -5.723,12.192 Z" /></g><g
       transform="translate(102.8975,90.4475)"
       id="g16"><path
         id="path18"
         style="fill:#a6d71c;fill-opacity:1;fill-rule:nonzero;stroke:none"
         d="M 0,0 -24.44,-24.092 -91.786,0.2 -49.763,15.438 -42.401,0 Z" /></g><g
       transform="translate(72.4133,120.9454)"
       id="g20"><path
         id="path22"
         style="fill:#26b144;fill-opacity:1;fill-rule:nonzero;stroke:none"
         d="M 0,0 5.912,-5.972 -19.278,-15.06 -50.054,50.456 8.419,22.988 Z" /></g><g
       transform="translate(103.2132,133.3946)"
       id="g24"><path
         id="path26"
         style="fill:#ed1c24;fill-opacity:1;fill-rule:nonzero;stroke:none"
         d="m 0,0 v -42.946 h -0.316 l -24.583,24.537 -0.011,-0.005 -5.888,5.963 8.417,22.991 z" /></g><g
       transform="translate(102.8975,90.4475)"
       id="g28"><path
         id="path30"
         style="fill:#ed1c24;fill-opacity:1;fill-rule:nonzero;stroke:none"
         d="m 0,0 h -42.401 l -7.362,15.438 25.191,9.088 z" /></g><g
       transform="translate(86.9813,160.5488)"
       id="g32"><path
         id="path34"
         style="fill:#a0148e;fill-opacity:1;fill-rule:nonzero;stroke:none"
         d="m 0,0 -6.147,-16.615 -16.806,7.893 -1.053,35.985 z" /></g><g
       transform="translate(103.509,90.4475)"
       id="g36"><path
         id="path38"
         style="fill:#00adef;fill-opacity:1;fill-rule:nonzero;stroke:none"
         d="M 0,0 24.462,-24.092 91.805,0.2 49.846,15.406 42.423,0 Z" /></g><g
       transform="translate(134.0778,120.9114)"
       id="g40"><path
         id="path42"
         style="fill:#f68712;fill-opacity:1;fill-rule:nonzero;stroke:none"
         d="M 0,0 -5.912,-5.969 19.278,-15.06 50.051,50.456 -8.365,23.018 Z" /></g><g
       transform="translate(103.2132,133.3946)"
       id="g44"><path
         id="path46"
         style="fill:#ed1c24;fill-opacity:1;fill-rule:nonzero;stroke:none"
         d="m 0,0 v -42.946 h 0.297 l 0.348,0.337 24.308,24.157 5.912,5.969 -8.365,23.018 z" /></g><g
       transform="translate(103.509,90.4475)"
       id="g48"><path
         id="path50"
         style="fill:#ed1c24;fill-opacity:1;fill-rule:nonzero;stroke:none"
         d="m 0,0 h 42.423 l 7.423,15.406 -25.19,9.088 z" /></g><g
       transform="translate(153.3544,105.852)"
       id="g52"><path
         id="path54"
         style="fill:#ec008c;fill-opacity:1;fill-rule:nonzero;stroke:none"
         d="M 0,0 13.441,-4.857 33.229,14.386 5.715,12.208 Z" /></g><g
       transform="translate(119.5608,160.5459)"
       id="g56"><path
         id="path58"
         style="fill:#fddd04;fill-opacity:1;fill-rule:nonzero;stroke:none"
         d="m 0,0 6.153,-16.615 16.814,7.899 1.044,35.973 z" /></g><g
       transform="translate(125.7129,143.9303)"
       id="g60"><path
         id="path62"
         style="fill:#115595;fill-opacity:1;fill-rule:nonzero;stroke:none"
         d="M 0,0 -22.5,-10.535 -44.881,0.003 -22.5,60.6 Z" /></g><g
       transform="translate(147.0138,88.7188)"
       id="g64"><path
         id="path66"
         style="fill:#ffffff;fill-opacity:1;fill-rule:nonzero;stroke:none"
         d="M 0,0 7.216,14.982 43.224,1.932 -18.606,-20.371 -39.293,0 Z m -68.992,-20.371 -61.838,22.306 27.691,10.041 8.382,3.025 L -87.606,0 h 39.282 z m -37.962,34.638 -15.587,15.155 21.807,-1.714 3.842,-8.187 0.648,-1.374 -0.013,-0.002 0.002,-0.003 -8.071,-2.925 z m -14.105,64.82 52.712,-24.759 -8.252,-22.537 -0.003,-0.003 0.616,-0.618 4.163,-4.21 -21.164,-7.636 -0.712,1.522 -4.758,10.143 h -0.008 z m 38.882,15.276 20.161,-22.891 -5.133,-13.895 -0.005,0.003 v -0.003 l -14.138,6.644 z m 38.381,16.48 20.325,-54.739 -20.328,-9.52 -20.217,9.52 5.961,16.094 -0.011,0.011 z m 38.491,-16.48 -0.877,-30.142 -1.525,-0.718 -12.629,-5.931 -5.14,13.889 z M 10.94,30.984 10.921,30.981 5.445,19.291 l -4.247,1.533 -16.919,6.104 4.781,4.828 -8.2,22.562 0.008,0.008 v 0.002 L 33.523,79.052 Z M 34.937,29.422 19.353,14.267 8.724,18.107 v 0.005 L 8.708,18.115 13.212,27.7 Z M -18.409,24.23 -1.401,18.091 3.956,16.158 -2.167,3.451 H -39.32 Z m -73.091,-8.039 22.357,8.066 0.108,-0.106 0.008,0.003 20.743,-20.703 h -37.144 z m 71.431,11.253 -0.156,-0.157 -21.85,-21.709 v 38 l 19.796,9.269 7.348,-20.217 z m -45.142,25.408 19.688,-9.269 V 5.57 l -21.944,21.906 -5.138,5.184 z M 53.373,1.927 22.948,12.953 44.204,33.618 14.898,31.297 40.709,86.243 -2.68,65.864 l 1.101,37.949 -25.274,-28.695 -16.951,45.663 -16.855,-45.628 -25.247,28.666 1.112,-37.955 -43.454,20.412 25.827,-54.976 -29.381,2.315 21.248,-20.66 -30.42,-11.028 72.854,-26.281 22.591,22.265 3.454,-0.016 22.597,-22.249 z" /></g><path
       id="path68"
       style="fill:#ed1c24;fill-opacity:1;fill-rule:nonzero;stroke:none"
       d="m 105.161,88.719 h -3.889 V 35.2 h 3.889 z" /><g
       id="g70"><g
         clip-path="url(#clipPath76)"
         id="g72"><g
           transform="translate(38.6122,9.1755)"
           id="g78"><path
             id="path80"
             style="fill:#115595;fill-opacity:1;fill-rule:nonzero;stroke:none"
             d="m 0,0 -0.146,-0.297 c -0.334,-0.68 -0.839,-1.214 -1.5,-1.587 -0.672,-0.375 -1.433,-0.569 -2.27,-0.569 -0.612,0 -1.2,0.113 -1.745,0.335 -0.546,0.221 -1.026,0.55 -1.433,0.974 -0.41,0.432 -0.742,0.971 -0.985,1.614 -0.24,0.642 -0.367,1.405 -0.367,2.272 0,0.836 0.121,1.584 0.359,2.22 0.234,0.635 0.561,1.174 0.971,1.601 0.405,0.429 0.893,0.755 1.444,0.977 0.553,0.218 1.157,0.334 1.8,0.334 0.823,0 1.565,-0.156 2.196,-0.472 C -1.031,7.081 -0.44,6.684 0.078,6.217 L 0.286,6.034 2.326,8.659 2.148,8.824 c -0.753,0.675 -1.633,1.233 -2.626,1.651 -0.995,0.419 -2.123,0.632 -3.354,0.632 -1.131,0 -2.194,-0.194 -3.154,-0.58 -0.961,-0.383 -1.8,-0.942 -2.494,-1.654 -0.691,-0.713 -1.241,-1.593 -1.63,-2.604 -0.391,-1.015 -0.588,-2.173 -0.588,-3.444 0,-1.271 0.197,-2.439 0.586,-3.481 0.391,-1.044 0.939,-1.948 1.63,-2.687 0.69,-0.74 1.521,-1.325 2.471,-1.73 0.945,-0.408 1.989,-0.613 3.095,-0.613 0.624,0 1.25,0.068 1.862,0.203 0.613,0.137 1.199,0.348 1.744,0.637 0.545,0.288 1.049,0.653 1.5,1.09 0.453,0.437 0.839,0.958 1.155,1.546 l 0.103,0.186 z" /></g><g
           transform="translate(53.1694,9.5635)"
           id="g82"><path
             id="path84"
             style="fill:#115595;fill-opacity:1;fill-rule:nonzero;stroke:none"
             d="m 0,0 h -3.47 l 1.743,4.148 z m -1.301,10.562 -0.07,0.156 H -2.018 L -9.315,-5.864 h 3.386 l 1.433,3.416 h 5.5 l 1.43,-3.416 H 5.95 Z" /></g><g
           transform="translate(73.1638,20.0749)"
           id="g86"><path
             id="path88"
             style="fill:#115595;fill-opacity:1;fill-rule:nonzero;stroke:none"
             d="m 0,0 v -9.496 l -9.585,9.704 h -0.618 v -16.582 h 3.133 v 9.512 l 9.582,-9.723 H 3.13 L 3.13,0 Z" /></g><g
           transform="translate(89.445,9.5635)"
           id="g90"><path
             id="path92"
             style="fill:#115595;fill-opacity:1;fill-rule:nonzero;stroke:none"
             d="m 0,0 h -3.47 l 1.743,4.148 z m -1.301,10.562 -0.067,0.156 h -0.65 L -9.315,-5.864 h 3.386 l 1.433,3.416 h 5.5 l 1.43,-3.416 H 5.95 Z" /></g><g
           transform="translate(104.8263,6.9323)"
           id="g94"><path
             id="path96"
             style="fill:#115595;fill-opacity:1;fill-rule:nonzero;stroke:none"
             d="M 0,0 H -2.353 V 9.89 H 0 C 0.772,9.89 1.438,9.766 1.975,9.518 2.51,9.275 2.949,8.929 3.287,8.495 3.632,8.055 3.883,7.531 4.04,6.938 4.199,6.336 4.282,5.67 4.282,4.963 4.282,4.242 4.196,3.573 4.031,2.958 3.867,2.361 3.613,1.838 3.279,1.403 2.947,0.974 2.504,0.631 1.962,0.378 1.419,0.13 0.758,0 0,0 M 7.1,7.961 C 6.824,8.927 6.374,9.806 5.769,10.57 c -0.61,0.764 -1.411,1.392 -2.382,1.862 -0.972,0.469 -2.162,0.71 -3.533,0.71 h -5.44 V -3.233 h 5.44 c 1.403,0 2.61,0.243 3.578,0.732 0.969,0.485 1.768,1.13 2.372,1.918 0.597,0.783 1.039,1.676 1.309,2.658 0.267,0.977 0.402,1.959 0.402,2.931 0,1.001 -0.14,1.997 -0.415,2.955" /></g><g
           transform="translate(124.0211,9.5635)"
           id="g98"><path
             id="path100"
             style="fill:#115595;fill-opacity:1;fill-rule:nonzero;stroke:none"
             d="m 0,0 h -3.47 l 1.743,4.148 z M -1.371,10.718 H -2.019 L -9.318,-5.864 h 3.389 l 1.431,3.416 h 5.502 l 1.43,-3.416 H 5.95 Z" /></g><g
           transform="translate(146.2051,20.2814)"
           id="g102"><path
             id="path104"
             style="fill:#115595;fill-opacity:1;fill-rule:nonzero;stroke:none"
             d="m 0,0 -7.092,-6.037 1.579,-2.317 2.904,2.436 V -16.582 H 0.626 L 0.626,0 Z" /></g><g
           transform="translate(162.471,12.143)"
           id="g106"><path
             id="path108"
             style="fill:#115595;fill-opacity:1;fill-rule:nonzero;stroke:none"
             d="m 0,0 c -0.335,0.702 -0.777,1.276 -1.317,1.708 -0.537,0.429 -1.147,0.74 -1.811,0.926 -1.379,0.391 -2.798,0.361 -3.993,-0.011 l 0.253,2.075 h 6.52 v 3.233 h -9.118 l -0.826,-8.765 0.564,-0.286 0.135,0.124 c 0.529,0.491 1.101,0.877 1.7,1.144 0.594,0.273 1.265,0.405 1.999,0.405 0.953,0 1.736,-0.251 2.318,-0.747 0.583,-0.494 0.861,-1.228 0.861,-2.251 0,-0.907 -0.251,-1.641 -0.744,-2.175 -0.494,-0.529 -1.244,-0.801 -2.227,-0.801 -0.731,0 -1.416,0.151 -2.037,0.445 -0.618,0.291 -1.152,0.699 -1.579,1.206 l -0.226,0.265 -1.509,-2.305 0.1,-0.143 c 0.548,-0.774 1.303,-1.427 2.245,-1.932 0.947,-0.507 2.062,-0.766 3.317,-0.766 0.941,0 1.791,0.156 2.523,0.464 0.736,0.31 1.365,0.747 1.856,1.3 0.491,0.546 0.869,1.199 1.12,1.935 0.251,0.726 0.375,1.522 0.375,2.364 C 0.499,-1.576 0.332,-0.702 0,0" /></g><g
           transform="translate(174.4147,7.0798)"
           id="g110"><path
             id="path112"
             style="fill:#115595;fill-opacity:1;fill-rule:nonzero;stroke:none"
             d="m 0,0 c -0.769,-0.472 -1.862,-0.475 -2.62,0 -0.383,0.237 -0.713,0.58 -0.983,1.023 -0.275,0.45 -0.485,1.001 -0.634,1.635 -0.145,0.64 -0.218,1.357 -0.218,2.137 0,0.78 0.073,1.503 0.218,2.151 0.149,0.639 0.365,1.193 0.645,1.641 0.273,0.442 0.607,0.788 0.996,1.028 0.375,0.234 0.812,0.353 1.303,0.353 0.486,0 0.926,-0.119 1.301,-0.353 C 0.397,9.375 0.729,9.029 1.004,8.587 1.284,8.139 1.5,7.585 1.643,6.946 1.792,6.296 1.867,5.57 1.867,4.795 1.867,4.018 1.792,3.3 1.643,2.658 1.5,2.024 1.284,1.476 1.004,1.025 0.729,0.583 0.389,0.237 0,0 m 4.687,7.893 c -0.278,1.004 -0.691,1.911 -1.23,2.688 -0.54,0.788 -1.217,1.427 -2.005,1.899 -0.799,0.478 -1.73,0.721 -2.769,0.721 -1.023,0 -1.945,-0.243 -2.744,-0.721 C -4.849,12.008 -5.524,11.374 -6.069,10.594 -6.609,9.817 -7.021,8.913 -7.297,7.915 -7.572,6.911 -7.712,5.872 -7.712,4.817 c 0,-1.042 0.135,-2.075 0.405,-3.063 0.267,-0.996 0.674,-1.9 1.208,-2.682 0.535,-0.786 1.204,-1.433 1.995,-1.919 0.796,-0.494 1.729,-0.742 2.766,-0.742 1.041,0 1.972,0.243 2.776,0.721 0.796,0.469 1.479,1.111 2.019,1.902 0.539,0.774 0.952,1.678 1.23,2.677 C 4.962,2.704 5.1,3.74 5.1,4.795 5.1,5.853 4.962,6.892 4.687,7.893" /></g></g></g></g></svg>