<?xml version="1.0" encoding="UTF-8" standalone="no"?>
<svg
   xmlns:dc="http://purl.org/dc/elements/1.1/"
   xmlns:cc="http://creativecommons.org/ns#"
   xmlns:rdf="http://www.w3.org/1999/02/22-rdf-syntax-ns#"
   xmlns:svg="http://www.w3.org/2000/svg"
   xmlns="http://www.w3.org/2000/svg"
   version="1.1"
   id="svg2"
   xml:space="preserve"
   width="203.46733"
   height="22.391199"
   viewBox="0 0 203.46733 22.391199"><defs /><path
     id="path112"
     d="m 196.66733,17.604133 c -1.02533,0.629333 -2.48267,0.633333 -3.49333,0 -0.51067,-0.316 -0.95067,-0.773333 -1.31067,-1.364 -0.36667,-0.6 -0.64667,-1.334667 -0.84533,-2.18 -0.19334,-0.853333 -0.29067,-1.809333 -0.29067,-2.849333 0,-1.04 0.0973,-2.0040002 0.29067,-2.8680002 0.19866,-0.852 0.48666,-1.5906666 0.86,-2.1879999 0.364,-0.5893334 0.80933,-1.0506667 1.328,-1.3706667 0.5,-0.312 1.08266,-0.4706666 1.73733,-0.4706666 0.648,0 1.23467,0.1586666 1.73467,0.4706666 0.51866,0.32 0.96133,0.7813333 1.328,1.3706667 0.37333,0.5973333 0.66133,1.3359999 0.852,2.1879999 0.19866,0.8666666 0.29866,1.8346662 0.29866,2.8680002 0,1.036 -0.1,1.993333 -0.29866,2.849333 -0.19067,0.845333 -0.47867,1.576 -0.852,2.177333 -0.36667,0.589334 -0.82,1.050667 -1.33867,1.366667 m 6.24933,-10.5239998 c -0.37066,-1.3386667 -0.92133,-2.548 -1.64,-3.5839999 -0.72,-1.0506667 -1.62266,-1.9026667 -2.67333,-2.53199998 -1.06533,-0.63733332 -2.30667,-0.96133331 -3.692,-0.96133331 -1.364,0 -2.59333,0.32399999 -3.65867,0.96133331 -1.05066,0.62933328 -1.95066,1.47466658 -2.67733,2.51466658 -0.72,1.036 -1.26933,2.2413333 -1.63733,3.5719999 -0.36667,1.3386667 -0.55334,2.724 -0.55334,4.1306662 0,1.389334 0.18,2.766667 0.54,4.084 0.356,1.328 0.89867,2.533334 1.61067,3.576 0.71333,1.048 1.60533,1.910667 2.66,2.558667 1.06133,0.658666 2.30533,0.989333 3.688,0.989333 1.388,0 2.62933,-0.324 3.70133,-0.961333 1.06134,-0.625334 1.972,-1.481333 2.692,-2.536 0.71867,-1.032 1.26934,-2.237333 1.64,-3.569333 0.36667,-1.324 0.55067,-2.705334 0.55067,-4.112 0,-1.4106669 -0.184,-2.7960002 -0.55067,-4.1306668 M 180.7424,10.8532 c -0.44667,-0.9360002 -1.036,-1.7013336 -1.756,-2.2773335 -0.716,-0.572 -1.52934,-0.9866667 -2.41467,-1.2346667 -1.83867,-0.5213333 -3.73067,-0.4813333 -5.324,0.014667 l 0.33733,-2.7666666 h 8.69334 V 0.27853334 H 168.12106 L 167.01973,11.9652 l 0.752,0.381333 0.18,-0.165333 c 0.70533,-0.654667 1.468,-1.169334 2.26667,-1.525334 0.792,-0.364 1.68666,-0.54 2.66533,-0.54 1.27067,0 2.31467,0.334667 3.09067,0.996 0.77733,0.658667 1.148,1.637334 1.148,3.001334 0,1.209333 -0.33467,2.188 -0.992,2.9 -0.65867,0.705333 -1.65867,1.068 -2.96934,1.068 -0.97466,0 -1.888,-0.201334 -2.716,-0.593334 -0.824,-0.388 -1.536,-0.932 -2.10533,-1.608 l -0.30133,-0.353333 -2.012,3.073333 0.13333,0.190667 c 0.73067,1.032 1.73733,1.902666 2.99333,2.576 1.26267,0.676 2.74934,1.021333 4.42267,1.021333 1.25467,0 2.388,-0.208 3.364,-0.618667 0.98133,-0.413333 1.82,-0.996 2.47467,-1.733333 0.65466,-0.728 1.15866,-1.598666 1.49333,-2.58 0.33467,-0.968 0.5,-2.029333 0.5,-3.152 0,-1.349333 -0.22267,-2.514666 -0.66533,-3.450666 m -21.68787,-10.85119999 -9.456,8.04933309 2.10533,3.0893329 3.872,-3.2479995 V 22.111333 h 4.31334 V 0.00200001 Z M 129.47586,14.292533 h -4.62666 l 2.324,-5.5306665 z m -1.828,-14.29066632 h -0.864 l -9.732,22.10933232 h 4.51867 l 1.908,-4.554666 h 7.336 l 1.90667,4.554666 h 4.688 z M 103.8828,17.8008 h -3.13734 V 4.6141332 h 3.13734 c 1.02933,0 1.91733,0.1653334 2.63333,0.496 0.71333,0.324 1.29867,0.7853333 1.74933,1.364 0.46,0.5866666 0.79467,1.2853333 1.004,2.0759999 0.212,0.8026667 0.32267,1.6906669 0.32267,2.6333329 0,0.961334 -0.11467,1.853334 -0.33467,2.673334 -0.21866,0.796 -0.55733,1.493333 -1.00266,2.073333 -0.44267,0.572 -1.03334,1.029333 -1.756,1.366667 -0.724,0.330666 -1.60534,0.504 -2.616,0.504 m 9.46666,-10.6146668 c -0.368,-1.288 -0.968,-2.46 -1.77466,-3.4786666 -0.81334,-1.0186667 -1.88134,-1.856 -3.176,-2.4826666 -1.296,-0.62533334 -2.88267,-0.94666666 -4.71067,-0.94666666 H 96.434798 V 22.111466 h 7.253332 c 1.87067,0 3.48,-0.324 4.77067,-0.976 1.292,-0.646667 2.35733,-1.506666 3.16266,-2.557333 0.796,-1.044 1.38534,-2.234667 1.74534,-3.544 0.356,-1.302667 0.536,-2.612 0.536,-3.908 0,-1.3346666 -0.18667,-2.6626665 -0.55334,-3.9399998 M 83.374398,14.292533 h -4.626667 l 2.324,-5.5306665 z M 81.639731,0.20986667 81.550398,0.00186668 H 80.683731 L 70.954398,22.111199 h 4.514667 l 1.910667,-4.554666 h 7.333333 l 1.906666,4.554666 h 4.688 z M 61.666132,0.27733334 V 12.938666 L 48.886132,0 h -0.824 v 22.109333 h 4.177333 V 9.4266664 l 12.776,12.9639996 h 0.824 V 0.27733334 Z M 35.006933,14.292533 h -4.626667 l 2.324,-5.5306665 z M 33.272266,0.20986667 33.178933,0.00186668 H 32.316266 L 22.586933,22.111199 h 4.514666 l 1.910667,-4.554666 h 7.333333 l 1.906667,4.554666 h 4.688 z M 15.597333,14.809866 l -0.194667,0.396 c -0.445333,0.906667 -1.118666,1.618667 -2,2.116 -0.896,0.5 -1.910666,0.758667 -3.026666,0.758667 -0.8160001,0 -1.6000001,-0.150667 -2.3266668,-0.446667 C 7.3213333,17.3392 6.6813333,16.900533 6.1386666,16.3352 5.592,15.7592 5.1493333,15.040533 4.8253333,14.1832 4.5053333,13.3272 4.336,12.309866 4.336,11.153866 c 0,-1.114666 0.1613333,-2.1119995 0.4786666,-2.9599995 0.312,-0.8466667 0.748,-1.5653333 1.2946667,-2.1346666 0.54,-0.572 1.1906666,-1.0066667 1.9253333,-1.3026667 0.7373333,-0.2906666 1.5426666,-0.4453333 2.4000004,-0.4453333 1.097333,0 2.086666,0.208 2.927999,0.6293333 0.86,0.428 1.648,0.9573333 2.338667,1.58 l 0.277333,0.244 2.72,-3.4999999 -0.237333,-0.22 c -1.004,-0.9 -2.177333,-1.644 -3.501333,-2.20133331 C 13.633333,0.28453334 12.129333,5.3334275e-4 10.488,5.3334275e-4 8.9799999,5.3334275e-4 7.5626666,0.2592 6.2826666,0.77386666 5.0013333,1.2845333 3.8826667,2.0298666 2.9573334,2.9791999 2.0360001,3.9298666 1.3026667,5.1031999 0.78400008,6.4511998 0.26266676,7.8045331 1.0285999e-7,9.3485331 1.0285999e-7,11.0432 c 0,1.694666 0.26266665714001,3.252 0.78133331714001,4.641333 0.52133328,1.392 1.25199998,2.597333 2.17333328,3.582667 0.92,0.986666 2.0279999,1.766666 3.2946666,2.306666 1.2599999,0.544 2.6519999,0.817333 4.1266667,0.817333 0.832,0 1.666666,-0.09067 2.482666,-0.270666 0.817334,-0.182667 1.598667,-0.464 2.325334,-0.849334 0.726666,-0.384 1.398666,-0.870666 2,-1.453333 0.604,-0.582666 1.118666,-1.277333 1.54,-2.061333 l 0.137333,-0.248 z" /><metadata
     id="metadata990"><rdf:RDF><cc:Work
         rdf:about=""><dc:title></dc:title></cc:Work></rdf:RDF></metadata></svg>