<?xml version="1.0" encoding="UTF-8" standalone="no"?>
<svg
  xmlns:svg="http://www.w3.org/2000/svg"
  xmlns:xlink="http://www.w3.org/1999/xlink"
  xmlns="http://www.w3.org/2000/svg"
  viewBox="0 0 194.347 174.29981"
  height="174.2998"
  width="194.347"
  version="1.1">
  <defs>
    <symbol id="canada150_leaf">
      <path
        id="s1"
        fill="#00adef"
        style="fill:var(--s1-color, #00adef)"
        d="m 96.8778,119.0523 -24.462,24.092 -67.343,-24.292 41.959,-15.206 7.423,15.406 z" />

      <path
        id="s2"
        class="section"
        fill="#ec008c"
        style="fill:var(--s2-color, #ec008c)"
        d="m 47.0324,103.6478 -13.441,4.857 -19.788,-19.243 27.514,2.178 z" />

      <path
        id="s3"
        class="section"
        fill="#f68712"
        style="fill:var(--s3-color, #f68712)"
        d="m 66.309,88.5884 5.912,5.969 -25.19,9.091 -30.773,-65.516 58.416,27.438 z" />

      <path
        id="s4"
        class="section"
        fill="#fddd04"
        style="fill:var(--s4-color, #fddd04)"
        d="m 80.826,48.9539 -6.153,16.615 -16.814,-7.899 -1.044,-35.973 z" />

      <path
        id="s5"
        class="section"
        fill="#115595"
        style="fill:var(--s5-color, #115595)"
        d="m 74.6739,65.5695 22.5,10.535 22.381,-10.538 -22.381,-60.597 z" />

      <path
        id="s6"
        class="section"
        fill="#a0148e"
        style="fill:var(--s6-color, #a0148e)"
        d="m 113.4055,48.951 6.147,16.615 16.806,-7.893 1.053,-35.985 z" />

      <path
        id="s7"
        class="section"
        fill="#26b144"
        style="fill:var(--s7-color, #26b144)"
        d="m 127.9735,88.5544 -5.912,5.972 25.19,9.088 30.776,-65.516 -58.473,27.468 z"  />

      <path
        id="s8"
        class="section"
        fill="#5e2590"
        style="fill:var(--s8-color, #5e2590)"
        d="m 147.2452,103.6262 13.509,4.879 19.788,-19.243 -27.574,2.172 z"   />

      <path
        id="s9"
        class="section"
        fill="#a6d71c"
        style="fill:var(--s9-color, #a6d71c)"
        d="m 97.4893,119.0523 24.44,24.092 67.346,-24.292 -42.023,-15.238 -7.362,15.438 z" />

      <path
        id="s10"
        class="section"
        fill="#ed1c24"
        style="fill:var(--s10-color, #ed1c24)"
        d="m 97.4893,119.0523 h 42.401 l 7.362,-15.438 -25.191,-9.088 z" />

      <path
        id="s11"
        class="section"
        fill="#ed1c24"
        style="fill:var(--s11-color, #ed1c24)"
        d="m 97.1736,76.1052 v 42.946 h 0.316 l 24.583,-24.537 0.011,0.005 5.888,-5.963 -8.417,-22.991 z" />

      <path
        id="s12"
        class="section"
        fill="#ed1c24"
        style="fill:var(--s12-color, #ed1c24)"
        d="m 97.1736,76.1052 v 42.946 h -0.297 l -0.348,-0.337 -24.308,-24.157 -5.912,-5.969 8.365,-23.018 z" />

      <path
        id="s13"
        class="section"
        fill="#ed1c24"
        style="fill:var(--s13-color, #ed1c24)"
        d="m 96.8778,119.0523 h -42.423 l -7.423,-15.406 25.19,-9.088 z"  />


      <path
        id="borders"
        fill="#fff"
        style="fill:var(--borders-color, #fff)"
        d="m 53.373,120.781 -7.216,-14.982 -36.008,13.05 61.83,22.303 20.687,-20.371 z m 68.992,20.371 61.838,-22.306 -27.691,-10.041 -8.382,-3.025 -7.151,15.001 h -39.282 z m 37.962,-34.638 15.587,-15.155 -21.807,1.714 -3.842,8.187 -0.648,1.374 0.013,0.002 -0.002,0.003 8.071,2.925 z m 14.105,-64.82 -52.712,24.759 8.252,22.537 0.003,0.003 -0.616,0.618 -4.163,4.21 21.164,7.636 0.712,-1.522 4.758,-10.143 h 0.008 z m -38.882,-15.276 -20.161,22.891 5.133,13.895 0.005,-0.003 v 0.003 L 134.665,56.56 Z M 97.169,9.938 76.844,64.677 l 20.328,9.52 20.217,-9.52 -5.961,-16.094 0.011,-0.011 z m -38.491,16.48 0.877,30.142 1.525,0.718 12.629,5.931 5.14,-13.889 z m -16.245,63.379 0.019,0.003 5.476,11.69 4.247,-1.533 16.919,-6.104 -4.781,-4.828 8.2,-22.562 -0.008,-0.008 V 66.453 L 19.85,41.729 Z m -23.997,1.562 15.584,15.155 10.629,-3.84 v -0.005 l 0.016,-0.003 -4.504,-9.585 z m 53.346,5.192 -17.008,6.139 -5.357,1.933 6.123,12.707 h 37.153 z m 73.091,8.039 -22.357,-8.066 -0.108,0.106 -0.008,-0.003 -20.743,20.703 h 37.144 z m -71.431,-11.253 0.156,0.157 21.85,21.709 v -38 L 75.652,67.934 68.304,88.151 Z m 45.142,-25.408 -19.688,9.269 v 38.013 l 21.944,-21.906 5.138,-5.184 z M 0,118.854 30.425,107.828 9.169,87.163 38.475,89.484 12.664,34.538 56.053,54.917 54.952,16.968 80.226,45.663 97.177,0 l 16.855,45.628 25.247,-28.666 -1.112,37.955 43.454,-20.412 -25.827,54.976 29.381,-2.315 -21.248,20.66 30.42,11.028 -72.854,26.281 -22.591,-22.265 -3.454,0.016 -22.597,22.249 z" />

      <path
        id="stem"
        fill="#ed1c24"
        style="fill:var(--stem-color, #ed1c24)"
        d="m 95.2258,120.7808 h 3.889 v 53.519 h -3.889 z"/>
    </symbol>
  </defs>
  <use
    xlink:href="#canada150_leaf"
    height="174.2998"
    width="194.347" />
</svg>
